<?xml version="1.0" encoding="UTF-8"?>
<svg id="Layer_2" data-name="Layer 2" xmlns="http://www.w3.org/2000/svg" viewBox="0 0 33.21 36.84">
  <defs>
    <style>
      .cls-1 {
        fill: #3544b1;
      }

      .cls-2 {
        fill: #f1f2f7;
      }

      .cls-3 {
        fill: #dadada;
      }

      .cls-4 {
        fill: #8e755e;
      }

      .cls-5 {
        fill: #f5c1bc;
      }

      .cls-6 {
        fill: #1b264f;
      }
    </style>
  </defs>
  <g id="Layer_1-2" data-name="Layer 1">
    <g>
      <g>
        <path class="cls-3" d="M2.76,8.55c.54,2.94,3.12,6.34,3.12,6.34L17.15,3.45S13.91-.01,11.62,0,4.27,2.4,4.27,2.4c0,0-2.08,3.19-1.51,6.13"/>
        <path class="cls-5" d="M27.9,14.55s2.58-3.43,2.64-5.57c.06-2.14-2.28-6.66-2.28-6.66C28.27,2.31,25.61,0,22.81,.41s-5.69,3.12-5.69,3.12l10.78,11.02Z"/>
        <path class="cls-1" d="M17,25.59l10.89-11.03-21.77,.24,10.89,10.79"/>
        <path class="cls-4" d="M5.88,14.82L17.1,3.62l-.09,11.04-11.12,.16Z"/>
        <path class="cls-2" d="M27.9,14.55L17.15,3.57l-.09,11.09,10.84-.11Z"/>
      </g>
      <path class="cls-5" d="M13.32,7.33c-.52-.19-.92-.24-2.2-.27-.86-.01-1.67,0-1.82,.02-.55,.1-1.56,.51-1.98,.79-.82,.57-1.31,1.95-1.12,3.21,.12,.82,.25,1.1,.77,1.67,1.23,1.34,3.88,1.83,5.57,1.04,1.63-.76,2.47-2.39,2.28-4.37-.13-1.3-.43-1.71-1.5-2.1Z"/>
      <path class="cls-3" d="M17.59,13.78c-.49-.3-.96-.28-1.36,.07-.24,.21-.5,.73-.93,1.8-.74,1.87-.8,2.25-.41,2.71,.36,.43,.92,.61,1.51,.47,.26-.05,.71-.06,1.09-.01,1.09,.15,1.84-.3,1.84-1.11,0-.25-.94-2.83-1.25-3.43-.07-.16-.3-.4-.49-.5Z"/>
      <path class="cls-4" d="M25.61,7.32c-.49-.18-.91-.24-2.22-.26-1.71-.03-1.69-.03-2.69,.29-1.07,.34-1.4,.84-1.51,2.23-.14,1.9,.7,3.45,2.28,4.23,1.65,.82,4.39,.28,5.64-1.11,.59-.66,.77-1.3,.7-2.54-.09-1.47-.73-2.3-2.21-2.84Z"/>
    </g>
    <path class="cls-6" d="M12.42,28.6s-.63,.11-1.36,.27c-1.68,.34-3.93,.73-5.53,.95-1.12,.15-1.35,.16-2.12,.06-1.42-.18-1.84-.19-2.17-.07-.6,.23-1.16,1.08-1.24,1.9-.05,.47,.01,.7,.44,1.68,.19,.45,.37,1,.4,1.23,.12,.95,.16,1.11,.39,1.35,.31,.33,.74,.45,1.31,.34,.6-.12,1.08-.43,1.64-1.08,.95-1.1,2.02-1.84,3.53-2.42,.86-.33,3.63-1.14,6.66-1.95l1.95-.51s4.31-.84,4.19-.99c-.03-.03,.06-.06,2.18-.56,2.78-.66,4.08-.73,6.38-.33,1.57,.27,1.85,.27,2.54-.09,.49-.25,.84-.65,.93-1.07,.05-.23,.02-.4-.13-.75-.1-.25-.26-.64-.36-.86-.11-.27-.16-.53-.13-.78,.03-.34,.07-.38,.65-.88l.62-.51v-.52c.02-.9-.32-1.32-1.45-1.82-1.54-.68-2.69-.21-4.2,1.66-1.01,1.25-1.9,1.93-3.21,2.44-1.28,.5-7.39,2.26-7.73,2.23-.32-.03-3.91,1.1-4.18,1.09Z"/>
    <path class="cls-5" d="M1.88,20.52c-.42,.14-1.14,.55-1.34,.75-.23,.24-.4,.76-.37,1.22,.03,.42,.03,.43,.57,.92,.3,.27,.57,.57,.61,.67,.11,.35,0,.82-.32,1.44-.18,.34-.34,.75-.36,.89-.08,.63,.54,1.36,1.37,1.61,.53,.16,.74,.15,2.25-.06,1.33-.19,2.71-.17,3.95,.06,1.09,.2,4.67,1.17,4.4,1.21-.02,0,4.13,1.11,4.13,1.11l2.12,.65c3.1,.95,5.53,1.76,6.32,2.09,1.53,.66,2.6,1.44,3.51,2.58,.54,.67,1.01,1,1.6,1.14,.73,.16,1.3-.06,1.54-.62,.06-.12,.14-.48,.18-.79,.06-.38,.23-.9,.54-1.59,.41-.91,.46-1.08,.44-1.46-.03-.53-.31-1.23-.64-1.59-.48-.52-.78-.57-2.7-.4-.77,.07-1.01,.05-2.11-.14-1.99-.34-6.68-1.37-6.82-1.5-.03-.03-3.81-1.23-4.15-1.21-.32,.02-6.37-1.97-7.65-2.51-1.3-.56-2.11-1.22-3.09-2.53-1.16-1.53-1.99-2.08-3.08-2.06-.3,0-.71,.07-.91,.13Z"/>
  </g>
</svg>